<svg xmlns="http://www.w3.org/2000/svg" xmlns:xlink="http://www.w3.org/1999/xlink" version="1.1" x="0px" y="0px" viewBox="0 0 66 82.5" style="enable-background:new 0 0 66 66;" xml:space="preserve"><path d="M12.93,61.88c0,1.44,1.17,2.62,2.62,2.62h37.07c1.44,0,2.62-1.17,2.62-2.62V36.67h-42.3V61.88z M23.16,57.8l9.75-15.38  c0.55-0.86,1.81-0.86,2.36,0l9.74,15.38c0.59,0.93-0.08,2.14-1.18,2.14H24.34C23.24,59.95,22.57,58.73,23.16,57.8z"/><path d="M52.62,25.63H15.55c-1.44,0-2.62,1.17-2.62,2.62v6.43h42.3v-6.43C55.23,26.8,54.06,25.63,52.62,25.63z M18.06,31.15  c-0.55,0-1.01-0.45-1.01-1s0.44-1,0.99-1h0.02c0.55,0,1,0.45,1,1S18.61,31.15,18.06,31.15z M22.33,31.15c-0.55,0-1.01-0.45-1.01-1  s0.44-1,0.99-1h0.02c0.55,0,1,0.45,1,1S22.88,31.15,22.33,31.15z M26.6,31.15c-0.55,0-1.01-0.45-1.01-1s0.44-1,0.99-1h0.02  c0.55,0,1,0.45,1,1S27.15,31.15,26.6,31.15z M49.87,31.15H35.15c-0.55,0-1-0.45-1-1s0.45-1,1-1h14.72c0.55,0,1,0.45,1,1  S50.42,31.15,49.87,31.15z"/><path d="M33.81,54.23c0.55,0,1-0.45,1-1v-4.65c0-0.55-0.45-1-1-1s-1,0.45-1,1v4.65C32.81,53.79,33.26,54.23,33.81,54.23z"/><path d="M33.81,57.12c0.55,0,1-0.45,1-1v-0.11c0-0.55-0.45-1-1-1s-1,0.45-1,1v0.11C32.81,56.67,33.26,57.12,33.81,57.12z"/><path d="M58.55,19.33c0.71-1.57,1.1-3.31,1.1-5.15c0-7-5.68-12.68-12.68-12.68c-5.09,0-9.49,3.01-11.5,7.34  c-1.95-1.59-4.44-2.54-7.14-2.54c-6.27,0-11.35,5.08-11.35,11.35c0,0.2,0,0.4,0.01,0.61c-1.15-0.38-2.37-0.6-3.64-0.6  C7.09,17.67,2,22.75,2,29.01c0,5.44,3.83,9.97,8.93,11.08V28.25c0-2.55,2.07-4.62,4.62-4.62h37.07c2.54,0,4.61,2.07,4.61,4.62V39.4  C61.22,37.64,64,33.66,64,29.01C64,24.91,61.82,21.32,58.55,19.33z"/></svg>