<svg xmlns="http://www.w3.org/2000/svg" xmlns:xlink="http://www.w3.org/1999/xlink" version="1.1" x="0px" y="0px" viewBox="0 0 128 160" style="enable-background:new 0 0 128 128;" xml:space="preserve"><g><path d="M114,1H14C6.8,1,1,6.8,1,14v10v4c0,1.7,1.3,3,3,3h120c1.7,0,3-1.3,3-3V14C127,6.8,121.2,1,114,1z M22,19h-4   c-1.7,0-3-1.3-3-3s1.3-3,3-3h4c1.7,0,3,1.3,3,3S23.7,19,22,19z M38,19h-4c-1.7,0-3-1.3-3-3s1.3-3,3-3h4c1.7,0,3,1.3,3,3   S39.7,19,38,19z M110,19H76c-1.7,0-3-1.3-3-3s1.3-3,3-3h34c1.7,0,3,1.3,3,3S111.7,19,110,19z"/><polygon points="86,88.5 94,88.5 94,73.4 86,88.3  "/><path d="M64,64.5c-2.8,0-5,2.2-5,5v21c0,2.8,2.2,5,5,5s5-2.2,5-5v-21C69,66.7,66.8,64.5,64,64.5z"/><polygon points="31,88.5 39,88.5 39,73.4 31,88.3  "/><path d="M124,37H4c-1.7,0-3,1.3-3,3v74c0,7.2,5.8,13,13,13h100c7.2,0,13-5.8,13-13V40C127,38.3,125.7,37,124,37z M45,94.5v4   c0,1.7-1.3,3-3,3s-3-1.3-3-3v-4H28c-1.7,0-3-1.3-3-3v-4c0-0.5,0.1-1,0.4-1.4l14-26c0.7-1.2,2-1.8,3.4-1.5s2.3,1.5,2.3,2.9v27   c1.7,0,3,1.3,3,3S46.7,94.5,45,94.5z M75,90.5c0,6.1-4.9,11-11,11s-11-4.9-11-11v-21c0-6.1,4.9-11,11-11s11,4.9,11,11V90.5z    M100,94.5v4c0,1.7-1.3,3-3,3s-3-1.3-3-3v-4H83c-1.7,0-3-1.3-3-3v-4c0-0.5,0.1-1,0.4-1.4l14-26c0.7-1.2,2-1.8,3.4-1.5   c1.3,0.3,2.3,1.5,2.3,2.9v27c1.7,0,3,1.3,3,3S101.7,94.5,100,94.5z"/></g></svg>